<?xml version="1.0" encoding="UTF-8" standalone="no"?>
<!DOCTYPE svg PUBLIC "-//W3C//DTD SVG 1.1//EN" "http://www.w3.org/Graphics/SVG/1.1/DTD/svg11.dtd">
<svg width="100%" height="100%" viewBox="0 0 1024 1024" version="1.1" xmlns="http://www.w3.org/2000/svg" xmlns:xlink="http://www.w3.org/1999/xlink" xml:space="preserve" style="fill-rule:evenodd;clip-rule:evenodd;stroke-linejoin:round;stroke-miterlimit:1.41421;">
    <path d="M198.005,107.676C284.735,40.202 393.71,0 512,0C535.671,0 558.969,1.61 581.791,4.726C575.096,37.6 595.112,70.466 627.951,79.265C660.799,88.067 694.577,69.599 705.206,37.765C748.786,55.557 789.374,79.185 825.995,107.676C803.844,132.801 804.774,171.206 828.784,195.216C852.794,219.226 891.199,220.156 916.324,198.005C983.798,284.735 1024,393.71 1024,512C1024,535.671 1022.39,558.969 1019.27,581.791C986.4,575.096 953.534,595.112 944.735,627.951C935.933,660.799 954.401,694.577 986.235,705.206C968.443,748.786 944.815,789.374 916.324,825.995C891.199,803.844 852.794,804.774 828.784,828.784C804.774,852.794 803.844,891.199 825.995,916.324C739.265,983.798 630.29,1024 512,1024C488.329,1024 465.031,1022.39 442.209,1019.27C448.904,986.4 428.888,953.534 396.049,944.735C363.201,935.933 329.423,954.401 318.794,986.235C275.214,968.443 234.626,944.815 198.005,916.324C220.156,891.199 219.226,852.794 195.216,828.784C171.206,804.774 132.801,803.844 107.676,825.995C40.202,739.265 0,630.29 0,512C0,488.329 1.61,465.031 4.726,442.209C37.6,448.904 70.466,428.888 79.265,396.049C88.067,363.201 69.599,329.423 37.765,318.794C55.557,275.214 79.185,234.626 107.676,198.005C132.801,220.156 171.206,219.226 195.216,195.216C219.226,171.206 220.156,132.801 198.005,107.676Z" style="fill:rgb(232,63,22);"/>
    <g transform="matrix(6,0,0,6,-2224,-2086)">
        <circle cx="456" cy="433" r="64" style="fill:rgb(255,100,27);"/>
    </g>
    <g transform="matrix(4.5,0,0,4.5,-1540,-1436.5)">
        <circle cx="456" cy="433" r="64" style="fill:rgb(255,133,27);"/>
    </g>
    <g transform="matrix(3,0,0,3,-856,-787)">
        <circle cx="456" cy="433" r="64" style="fill:rgb(255,195,25);"/>
    </g>
    <g transform="matrix(1.5001,0,0,1.5001,-172.046,-137.543)">
        <circle cx="456" cy="433" r="64" style="fill:rgb(255,220,0);"/>
    </g>
    <g transform="matrix(3.8637,1.03528,-1.03528,3.8637,-1074.79,-1772.53)">
        <circle cx="531" cy="377" r="8" style="fill:rgb(255,195,25);"/>
    </g>
    <g transform="matrix(3.8637,1.03528,-1.03528,3.8637,-1074.79,-1772.53)">
        <circle cx="531" cy="377" r="8" style="fill:rgb(255,195,25);"/>
    </g>
    <g transform="matrix(3.8637,-1.03528,1.03528,3.8637,-2004.47,-673.071)">
        <circle cx="531" cy="377" r="8" style="fill:rgb(255,133,27);"/>
    </g>
    <g transform="matrix(3.4641,2,-2,3.4641,-477.438,-2022.24)">
        <circle cx="531" cy="377" r="8" style="fill:rgb(255,100,27);"/>
    </g>
    <g transform="matrix(4,0,1.11022e-15,4,-1612,-996)">
        <circle cx="531" cy="377" r="8" style="fill:rgb(168,232,22);"/>
    </g>
    <g transform="matrix(4.96944e-16,4,-4,-2.48472e-16,2212,-1612)">
        <circle cx="531" cy="377" r="8" style="fill:rgb(168,232,22);"/>
    </g>
    <g transform="matrix(3.4641,2,-2,3.4641,-669.438,-1689.69)">
        <circle cx="531" cy="377" r="8" style="fill:rgb(255,100,27);"/>
    </g>
    <g transform="matrix(4.96944e-16,4,-4,-2.48472e-16,1828,-1612)">
        <circle cx="531" cy="377" r="8" style="fill:rgb(168,232,22);"/>
    </g>
    <g transform="matrix(2.82843,-2.82843,2.82843,2.82843,-2259.86,743.931)">
        <circle cx="531" cy="377" r="8" style="fill:rgb(255,100,27);"/>
    </g>
    <g transform="matrix(-1.03528,3.8637,-3.8637,-1.03528,2796.53,-1074.79)">
        <circle cx="531" cy="377" r="8" style="fill:rgb(232,63,22);"/>
    </g>
    <g transform="matrix(1.03528,3.8637,-3.8637,1.03528,1697.07,-2004.47)">
        <circle cx="531" cy="377" r="8" style="fill:rgb(255,133,27);"/>
    </g>
    <g transform="matrix(2.82843,2.82843,-2.82843,2.82843,280.069,-2259.86)">
        <circle cx="531" cy="377" r="8" style="fill:rgb(255,100,27);"/>
    </g>
    <g transform="matrix(3.8637,1.03528,-1.03528,3.8637,-1223.87,-1216.16)">
        <circle cx="531" cy="377" r="8" style="fill:rgb(255,195,25);"/>
    </g>
    <g transform="matrix(3.8637,-1.03528,1.03528,3.8637,-1855.39,-116.698)">
        <circle cx="531" cy="377" r="8" style="fill:rgb(255,133,27);"/>
    </g>
    <g transform="matrix(2.82843,-2.82843,2.82843,2.82843,-1852.57,1151.22)">
        <circle cx="531" cy="377" r="8" style="fill:rgb(255,100,27);"/>
    </g>
    <g transform="matrix(-1.03528,3.8637,-3.8637,-1.03528,2240.16,-1223.87)">
        <circle cx="531" cy="377" r="8" style="fill:rgb(232,63,22);"/>
    </g>
    <g transform="matrix(1.03528,3.8637,-3.8637,1.03528,1140.7,-1855.39)">
        <circle cx="531" cy="377" r="8" style="fill:rgb(255,133,27);"/>
    </g>
    <g transform="matrix(2.82843,2.82843,-2.82843,2.82843,-127.225,-1852.57)">
        <circle cx="531" cy="377" r="8" style="fill:rgb(255,100,27);"/>
    </g>
    <g transform="matrix(5.54199,-2.2992,2.2992,5.54199,-3444.74,-711.147)">
        <circle cx="531" cy="377" r="8" style="fill:rgb(168,232,22);"/>
    </g>
    <g transform="matrix(3.64991,-4.76216,4.76216,3.64991,-3526.21,1431.1)">
        <circle cx="531" cy="377" r="8" style="fill:rgb(232,63,22);"/>
    </g>
    <g transform="matrix(2.2992,5.54199,-5.54199,2.2992,1735.15,-3444.74)">
        <circle cx="531" cy="377" r="8" style="fill:rgb(168,232,22);"/>
    </g>
    <g transform="matrix(4.76216,3.64991,-3.64991,4.76216,-407.096,-3526.21)">
        <circle cx="531" cy="377" r="8" style="fill:rgb(232,63,22);"/>
    </g>
    <g transform="matrix(5.54199,-2.2992,2.2992,5.54199,-3150.45,-1.7717)">
        <circle cx="531" cy="377" r="8" style="fill:rgb(168,232,22);"/>
    </g>
    <g transform="matrix(3.64991,-4.76216,4.76216,3.64991,-2916.66,1898.28)">
        <circle cx="531" cy="377" r="8" style="fill:rgb(232,63,22);"/>
    </g>
    <g transform="matrix(2.2992,5.54199,-5.54199,2.2992,1025.77,-3150.45)">
        <circle cx="531" cy="377" r="8" style="fill:rgb(168,232,22);"/>
    </g>
    <g transform="matrix(4.76216,3.64991,-3.64991,4.76216,-874.284,-2916.66)">
        <circle cx="531" cy="377" r="8" style="fill:rgb(232,63,22);"/>
    </g>
</svg>
